<?xml version="1.0" encoding="UTF-8" standalone="no"?>
<!DOCTYPE svg PUBLIC "-//W3C//DTD SVG 1.1//EN"
 "http://www.w3.org/Graphics/SVG/1.1/DTD/svg11.dtd">
<!-- Generated by graphviz version 2.38.0 (20140413.2041)
 -->
<!-- Title: controllers_diagram Pages: 1 -->
<svg width="474pt" height="356pt"
 viewBox="0.00 0.00 474.00 356.00" xmlns="http://www.w3.org/2000/svg" xmlns:xlink="http://www.w3.org/1999/xlink">
<g id="graph0" class="graph" transform="scale(1 1) rotate(0) translate(94 244)">
<title>controllers_diagram</title>
<polygon fill="none" stroke="none" points="-94,112 -94,-244 380,-244 380,112 -94,112"/>
<!-- _diagram_info -->
<g id="node1" class="node"><title>_diagram_info</title>
<text text-anchor="start" x="170" y="-225.6" font-family="Times,serif" font-size="13.00">Controllers diagram</text>
<text text-anchor="start" x="170" y="-211.6" font-family="Times,serif" font-size="13.00">Date: Mar 14 2017 &#45; 11:17</text>
<text text-anchor="start" x="170" y="-197.6" font-family="Times,serif" font-size="13.00">Migration version: 20170314140927</text>
<text text-anchor="start" x="170" y="-183.6" font-family="Times,serif" font-size="13.00">Generated by RailRoady 1.5.2</text>
<text text-anchor="start" x="170" y="-169.6" font-family="Times,serif" font-size="13.00">http://railroady.prestonlee.com</text>
</g>
<!-- ApplicationController -->
<g id="node2" class="node"><title>ApplicationController</title>
<path fill="none" stroke="black" d="M-78,-145C-78,-145 34,-145 34,-145 40,-145 46,-151 46,-157 46,-157 46,-227 46,-227 46,-233 40,-239 34,-239 34,-239 -78,-239 -78,-239 -84,-239 -90,-233 -90,-227 -90,-227 -90,-157 -90,-157 -90,-151 -84,-145 -78,-145"/>
<text text-anchor="middle" x="-22" y="-223.8" font-family="Times,serif" font-size="14.00">ApplicationController</text>
<polyline fill="none" stroke="black" points="-90,-216 46,-216 "/>
<polyline fill="none" stroke="black" points="-90,-192 46,-192 "/>
<polyline fill="none" stroke="black" points="-90,-168 46,-168 "/>
<text text-anchor="start" x="-82" y="-152.8" font-family="Times,serif" font-size="14.00">_layout</text>
</g>
<!-- CompaniesController -->
<g id="node3" class="node"><title>CompaniesController</title>
<path fill="none" stroke="black" d="M-60,107.5C-60,107.5 50,107.5 50,107.5 56,107.5 62,101.5 62,95.5 62,95.5 62,-93.5 62,-93.5 62,-99.5 56,-105.5 50,-105.5 50,-105.5 -60,-105.5 -60,-105.5 -66,-105.5 -72,-99.5 -72,-93.5 -72,-93.5 -72,95.5 -72,95.5 -72,101.5 -66,107.5 -60,107.5"/>
<text text-anchor="middle" x="-5" y="-90.3" font-family="Times,serif" font-size="14.00">CompaniesController</text>
<polyline fill="none" stroke="black" points="-72,-82.5 62,-82.5 "/>
<text text-anchor="start" x="-64" y="-67.3" font-family="Times,serif" font-size="14.00">create</text>
<text text-anchor="start" x="-64" y="-52.3" font-family="Times,serif" font-size="14.00">destroy</text>
<text text-anchor="start" x="-64" y="-37.3" font-family="Times,serif" font-size="14.00">edit</text>
<text text-anchor="start" x="-64" y="-22.3" font-family="Times,serif" font-size="14.00">index</text>
<text text-anchor="start" x="-64" y="-7.3" font-family="Times,serif" font-size="14.00">new</text>
<text text-anchor="start" x="-64" y="7.7" font-family="Times,serif" font-size="14.00">show</text>
<text text-anchor="start" x="-64" y="22.7" font-family="Times,serif" font-size="14.00">update</text>
<polyline fill="none" stroke="black" points="-72,30.5 62,30.5 "/>
<polyline fill="none" stroke="black" points="-72,54.5 62,54.5 "/>
<text text-anchor="start" x="-64" y="69.7" font-family="Times,serif" font-size="14.00">_layout</text>
<text text-anchor="start" x="-64" y="84.7" font-family="Times,serif" font-size="14.00">company_params</text>
<text text-anchor="start" x="-64" y="99.7" font-family="Times,serif" font-size="14.00">set_company</text>
</g>
<!-- ComplaintsController -->
<g id="node4" class="node"><title>ComplaintsController</title>
<path fill="none" stroke="black" d="M102.5,89.5C102.5,89.5 213.5,89.5 213.5,89.5 219.5,89.5 225.5,83.5 225.5,77.5 225.5,77.5 225.5,-111.5 225.5,-111.5 225.5,-117.5 219.5,-123.5 213.5,-123.5 213.5,-123.5 102.5,-123.5 102.5,-123.5 96.5,-123.5 90.5,-117.5 90.5,-111.5 90.5,-111.5 90.5,77.5 90.5,77.5 90.5,83.5 96.5,89.5 102.5,89.5"/>
<text text-anchor="middle" x="158" y="-108.3" font-family="Times,serif" font-size="14.00">ComplaintsController</text>
<polyline fill="none" stroke="black" points="90.5,-100.5 225.5,-100.5 "/>
<text text-anchor="start" x="98.5" y="-85.3" font-family="Times,serif" font-size="14.00">create</text>
<text text-anchor="start" x="98.5" y="-70.3" font-family="Times,serif" font-size="14.00">destroy</text>
<text text-anchor="start" x="98.5" y="-55.3" font-family="Times,serif" font-size="14.00">edit</text>
<text text-anchor="start" x="98.5" y="-40.3" font-family="Times,serif" font-size="14.00">index</text>
<text text-anchor="start" x="98.5" y="-25.3" font-family="Times,serif" font-size="14.00">new</text>
<text text-anchor="start" x="98.5" y="-10.3" font-family="Times,serif" font-size="14.00">show</text>
<text text-anchor="start" x="98.5" y="4.7" font-family="Times,serif" font-size="14.00">update</text>
<polyline fill="none" stroke="black" points="90.5,12.5 225.5,12.5 "/>
<polyline fill="none" stroke="black" points="90.5,36.5 225.5,36.5 "/>
<text text-anchor="start" x="98.5" y="51.7" font-family="Times,serif" font-size="14.00">_layout</text>
<text text-anchor="start" x="98.5" y="66.7" font-family="Times,serif" font-size="14.00">complaint_params</text>
<text text-anchor="start" x="98.5" y="81.7" font-family="Times,serif" font-size="14.00">set_complaint</text>
</g>
</g>
</svg>
