<?xml version="1.0" encoding="UTF-8" standalone="no"?>
<!DOCTYPE svg PUBLIC "-//W3C//DTD SVG 1.1//EN"
 "http://www.w3.org/Graphics/SVG/1.1/DTD/svg11.dtd">
<!-- Generated by graphviz version 2.38.0 (20140413.2041)
 -->
<!-- Title: controllers_diagram Pages: 1 -->
<svg width="701pt" height="630pt"
 viewBox="0.00 0.00 701.00 630.00" xmlns="http://www.w3.org/2000/svg" xmlns:xlink="http://www.w3.org/1999/xlink">
<g id="graph0" class="graph" transform="scale(1 1) rotate(0) translate(258.5 371.5)">
<title>controllers_diagram</title>
<polygon fill="none" stroke="none" points="-258.5,258.5 -258.5,-371.5 442.5,-371.5 442.5,258.5 -258.5,258.5"/>
<!-- _diagram_info -->
<g id="node1" class="node"><title>_diagram_info</title>
<text text-anchor="start" x="110" y="157.4" font-family="Times,serif" font-size="13.00">Controllers diagram</text>
<text text-anchor="start" x="110" y="171.4" font-family="Times,serif" font-size="13.00">Date: Mar 14 2017 &#45; 12:39</text>
<text text-anchor="start" x="110" y="185.4" font-family="Times,serif" font-size="13.00">Migration version: 20170314153351</text>
<text text-anchor="start" x="110" y="199.4" font-family="Times,serif" font-size="13.00">Generated by RailRoady 1.5.2</text>
<text text-anchor="start" x="110" y="213.4" font-family="Times,serif" font-size="13.00">http://railroady.prestonlee.com</text>
</g>
<!-- ApplicationController -->
<g id="node2" class="node"><title>ApplicationController</title>
<path fill="none" stroke="black" d="M-192,-273C-192,-273 -80,-273 -80,-273 -74,-273 -68,-279 -68,-285 -68,-285 -68,-355 -68,-355 -68,-361 -74,-367 -80,-367 -80,-367 -192,-367 -192,-367 -198,-367 -204,-361 -204,-355 -204,-355 -204,-285 -204,-285 -204,-279 -198,-273 -192,-273"/>
<text text-anchor="middle" x="-136" y="-351.8" font-family="Times,serif" font-size="14.00">ApplicationController</text>
<polyline fill="none" stroke="black" points="-204,-344 -68,-344 "/>
<polyline fill="none" stroke="black" points="-204,-320 -68,-320 "/>
<polyline fill="none" stroke="black" points="-204,-296 -68,-296 "/>
<text text-anchor="start" x="-196" y="-280.8" font-family="Times,serif" font-size="14.00">_layout</text>
</g>
<!-- CompaniesController -->
<g id="node3" class="node"><title>CompaniesController</title>
<path fill="none" stroke="black" d="M-56,118.5C-56,118.5 54,118.5 54,118.5 60,118.5 66,112.5 66,106.5 66,106.5 66,-82.5 66,-82.5 66,-88.5 60,-94.5 54,-94.5 54,-94.5 -56,-94.5 -56,-94.5 -62,-94.5 -68,-88.5 -68,-82.5 -68,-82.5 -68,106.5 -68,106.5 -68,112.5 -62,118.5 -56,118.5"/>
<text text-anchor="middle" x="-1" y="-79.3" font-family="Times,serif" font-size="14.00">CompaniesController</text>
<polyline fill="none" stroke="black" points="-68,-71.5 66,-71.5 "/>
<text text-anchor="start" x="-60" y="-56.3" font-family="Times,serif" font-size="14.00">create</text>
<text text-anchor="start" x="-60" y="-41.3" font-family="Times,serif" font-size="14.00">destroy</text>
<text text-anchor="start" x="-60" y="-26.3" font-family="Times,serif" font-size="14.00">edit</text>
<text text-anchor="start" x="-60" y="-11.3" font-family="Times,serif" font-size="14.00">index</text>
<text text-anchor="start" x="-60" y="3.7" font-family="Times,serif" font-size="14.00">new</text>
<text text-anchor="start" x="-60" y="18.7" font-family="Times,serif" font-size="14.00">show</text>
<text text-anchor="start" x="-60" y="33.7" font-family="Times,serif" font-size="14.00">update</text>
<polyline fill="none" stroke="black" points="-68,41.5 66,41.5 "/>
<polyline fill="none" stroke="black" points="-68,65.5 66,65.5 "/>
<text text-anchor="start" x="-60" y="80.7" font-family="Times,serif" font-size="14.00">_layout</text>
<text text-anchor="start" x="-60" y="95.7" font-family="Times,serif" font-size="14.00">company_params</text>
<text text-anchor="start" x="-60" y="110.7" font-family="Times,serif" font-size="14.00">set_company</text>
</g>
<!-- Users::OmniauthCallbacksController -->
<g id="node4" class="node"><title>Users::OmniauthCallbacksController</title>
<path fill="none" stroke="black" d="M165,-154C165,-154 359,-154 359,-154 365,-154 371,-160 371,-166 371,-166 371,-236 371,-236 371,-242 365,-248 359,-248 359,-248 165,-248 165,-248 159,-248 153,-242 153,-236 153,-236 153,-166 153,-166 153,-160 159,-154 165,-154"/>
<text text-anchor="middle" x="262" y="-232.8" font-family="Times,serif" font-size="14.00">Users::OmniauthCallbacksController</text>
<polyline fill="none" stroke="black" points="153,-225 371,-225 "/>
<polyline fill="none" stroke="black" points="153,-201 371,-201 "/>
<polyline fill="none" stroke="black" points="153,-177 371,-177 "/>
<text text-anchor="start" x="161" y="-161.8" font-family="Times,serif" font-size="14.00">_layout</text>
</g>
<!-- Users::RegistrationsController -->
<g id="node5" class="node"><title>Users::RegistrationsController</title>
<path fill="none" stroke="black" d="M-124,-137C-124,-137 58,-137 58,-137 64,-137 70,-143 70,-149 70,-149 70,-233 70,-233 70,-239 64,-245 58,-245 58,-245 -124,-245 -124,-245 -130,-245 -136,-239 -136,-233 -136,-233 -136,-149 -136,-149 -136,-143 -130,-137 -124,-137"/>
<text text-anchor="middle" x="-33" y="-229.8" font-family="Times,serif" font-size="14.00">Users::RegistrationsController</text>
<polyline fill="none" stroke="black" points="-136,-222 70,-222 "/>
<polyline fill="none" stroke="black" points="-136,-198 70,-198 "/>
<text text-anchor="start" x="-128" y="-182.8" font-family="Times,serif" font-size="14.00">configure_account_update_params</text>
<text text-anchor="start" x="-128" y="-167.8" font-family="Times,serif" font-size="14.00">configure_sign_up_params</text>
<polyline fill="none" stroke="black" points="-136,-160 70,-160 "/>
<text text-anchor="start" x="-128" y="-144.8" font-family="Times,serif" font-size="14.00">_layout</text>
</g>
<!-- Users::UnlocksController -->
<g id="node6" class="node"><title>Users::UnlocksController</title>
<path fill="none" stroke="black" d="M-242.5,-1C-242.5,-1 -111.5,-1 -111.5,-1 -105.5,-1 -99.5,-7 -99.5,-13 -99.5,-13 -99.5,-83 -99.5,-83 -99.5,-89 -105.5,-95 -111.5,-95 -111.5,-95 -242.5,-95 -242.5,-95 -248.5,-95 -254.5,-89 -254.5,-83 -254.5,-83 -254.5,-13 -254.5,-13 -254.5,-7 -248.5,-1 -242.5,-1"/>
<text text-anchor="middle" x="-177" y="-79.8" font-family="Times,serif" font-size="14.00">Users::UnlocksController</text>
<polyline fill="none" stroke="black" points="-254.5,-72 -99.5,-72 "/>
<polyline fill="none" stroke="black" points="-254.5,-48 -99.5,-48 "/>
<polyline fill="none" stroke="black" points="-254.5,-24 -99.5,-24 "/>
<text text-anchor="start" x="-246.5" y="-8.8" font-family="Times,serif" font-size="14.00">_layout</text>
</g>
<!-- Users::ConfirmationsController -->
<g id="node7" class="node"><title>Users::ConfirmationsController</title>
<path fill="none" stroke="black" d="M-242.5,254C-242.5,254 -77.5,254 -77.5,254 -71.5,254 -65.5,248 -65.5,242 -65.5,242 -65.5,172 -65.5,172 -65.5,166 -71.5,160 -77.5,160 -77.5,160 -242.5,160 -242.5,160 -248.5,160 -254.5,166 -254.5,172 -254.5,172 -254.5,242 -254.5,242 -254.5,248 -248.5,254 -242.5,254"/>
<text text-anchor="middle" x="-160" y="175.2" font-family="Times,serif" font-size="14.00">Users::ConfirmationsController</text>
<polyline fill="none" stroke="black" points="-254.5,183 -65.5,183 "/>
<polyline fill="none" stroke="black" points="-254.5,207 -65.5,207 "/>
<polyline fill="none" stroke="black" points="-254.5,231 -65.5,231 "/>
<text text-anchor="start" x="-246.5" y="246.2" font-family="Times,serif" font-size="14.00">_layout</text>
</g>
<!-- Users::PasswordsController -->
<g id="node8" class="node"><title>Users::PasswordsController</title>
<path fill="none" stroke="black" d="M283.5,101C283.5,101 426.5,101 426.5,101 432.5,101 438.5,95 438.5,89 438.5,89 438.5,19 438.5,19 438.5,13 432.5,7 426.5,7 426.5,7 283.5,7 283.5,7 277.5,7 271.5,13 271.5,19 271.5,19 271.5,89 271.5,89 271.5,95 277.5,101 283.5,101"/>
<text text-anchor="middle" x="355" y="22.2" font-family="Times,serif" font-size="14.00">Users::PasswordsController</text>
<polyline fill="none" stroke="black" points="271.5,30 438.5,30 "/>
<polyline fill="none" stroke="black" points="271.5,54 438.5,54 "/>
<polyline fill="none" stroke="black" points="271.5,78 438.5,78 "/>
<text text-anchor="start" x="279.5" y="93.2" font-family="Times,serif" font-size="14.00">_layout</text>
</g>
<!-- Users::SessionsController -->
<g id="node9" class="node"><title>Users::SessionsController</title>
<path fill="none" stroke="black" d="M-21.5,-273C-21.5,-273 111.5,-273 111.5,-273 117.5,-273 123.5,-279 123.5,-285 123.5,-285 123.5,-355 123.5,-355 123.5,-361 117.5,-367 111.5,-367 111.5,-367 -21.5,-367 -21.5,-367 -27.5,-367 -33.5,-361 -33.5,-355 -33.5,-355 -33.5,-285 -33.5,-285 -33.5,-279 -27.5,-273 -21.5,-273"/>
<text text-anchor="middle" x="45" y="-351.8" font-family="Times,serif" font-size="14.00">Users::SessionsController</text>
<polyline fill="none" stroke="black" points="-33.5,-344 123.5,-344 "/>
<polyline fill="none" stroke="black" points="-33.5,-320 123.5,-320 "/>
<polyline fill="none" stroke="black" points="-33.5,-296 123.5,-296 "/>
<text text-anchor="start" x="-25.5" y="-280.8" font-family="Times,serif" font-size="14.00">_layout</text>
</g>
<!-- ComplaintsController -->
<g id="node10" class="node"><title>ComplaintsController</title>
<path fill="none" stroke="black" d="M114.5,101.5C114.5,101.5 225.5,101.5 225.5,101.5 231.5,101.5 237.5,95.5 237.5,89.5 237.5,89.5 237.5,-99.5 237.5,-99.5 237.5,-105.5 231.5,-111.5 225.5,-111.5 225.5,-111.5 114.5,-111.5 114.5,-111.5 108.5,-111.5 102.5,-105.5 102.5,-99.5 102.5,-99.5 102.5,89.5 102.5,89.5 102.5,95.5 108.5,101.5 114.5,101.5"/>
<text text-anchor="middle" x="170" y="-96.3" font-family="Times,serif" font-size="14.00">ComplaintsController</text>
<polyline fill="none" stroke="black" points="102.5,-88.5 237.5,-88.5 "/>
<text text-anchor="start" x="110.5" y="-73.3" font-family="Times,serif" font-size="14.00">create</text>
<text text-anchor="start" x="110.5" y="-58.3" font-family="Times,serif" font-size="14.00">destroy</text>
<text text-anchor="start" x="110.5" y="-43.3" font-family="Times,serif" font-size="14.00">edit</text>
<text text-anchor="start" x="110.5" y="-28.3" font-family="Times,serif" font-size="14.00">index</text>
<text text-anchor="start" x="110.5" y="-13.3" font-family="Times,serif" font-size="14.00">new</text>
<text text-anchor="start" x="110.5" y="1.7" font-family="Times,serif" font-size="14.00">show</text>
<text text-anchor="start" x="110.5" y="16.7" font-family="Times,serif" font-size="14.00">update</text>
<polyline fill="none" stroke="black" points="102.5,24.5 237.5,24.5 "/>
<polyline fill="none" stroke="black" points="102.5,48.5 237.5,48.5 "/>
<text text-anchor="start" x="110.5" y="63.7" font-family="Times,serif" font-size="14.00">_layout</text>
<text text-anchor="start" x="110.5" y="78.7" font-family="Times,serif" font-size="14.00">complaint_params</text>
<text text-anchor="start" x="110.5" y="93.7" font-family="Times,serif" font-size="14.00">set_complaint</text>
</g>
</g>
</svg>
