<?xml version="1.0" encoding="UTF-8" standalone="no"?>
<!DOCTYPE svg PUBLIC "-//W3C//DTD SVG 1.1//EN"
 "http://www.w3.org/Graphics/SVG/1.1/DTD/svg11.dtd">
<!-- Generated by graphviz version 2.38.0 (20140413.2041)
 -->
<!-- Title: models_diagram Pages: 1 -->
<svg width="503pt" height="302pt"
 viewBox="0.00 0.00 503.34 302.00" xmlns="http://www.w3.org/2000/svg" xmlns:xlink="http://www.w3.org/1999/xlink">
<g id="graph0" class="graph" transform="scale(1 1) rotate(0) translate(4 298)">
<title>models_diagram</title>
<polygon fill="none" stroke="none" points="-4,4 -4,-298 499.343,-298 499.343,4 -4,4"/>
<!-- _diagram_info -->
<g id="node1" class="node"><title>_diagram_info</title>
<text text-anchor="start" x="8" y="-279.6" font-family="Times,serif" font-size="13.00">Models diagram</text>
<text text-anchor="start" x="8" y="-265.6" font-family="Times,serif" font-size="13.00">Date: Mar 14 2017 &#45; 12:39</text>
<text text-anchor="start" x="8" y="-251.6" font-family="Times,serif" font-size="13.00">Migration version: 20170314153351</text>
<text text-anchor="start" x="8" y="-237.6" font-family="Times,serif" font-size="13.00">Generated by RailRoady 1.5.2</text>
<text text-anchor="start" x="8" y="-223.6" font-family="Times,serif" font-size="13.00">http://railroady.prestonlee.com</text>
</g>
<!-- ComplaintUser -->
<g id="node2" class="node"><title>ComplaintUser</title>
<ellipse fill="none" stroke="black" cx="277" cy="-18" rx="64.9885" ry="18"/>
<text text-anchor="middle" x="277" y="-14.3" font-family="Times,serif" font-size="14.00">ComplaintUser</text>
</g>
<!-- ApplicationRecord -->
<g id="node3" class="node"><title>ApplicationRecord</title>
<ellipse fill="none" stroke="black" cx="418" cy="-255" rx="77.1866" ry="18"/>
<text text-anchor="middle" x="418" y="-251.3" font-family="Times,serif" font-size="14.00">ApplicationRecord</text>
</g>
<!-- Complaint -->
<g id="node4" class="node"><title>Complaint</title>
<ellipse fill="none" stroke="black" cx="277" cy="-162" rx="48.1917" ry="18"/>
<text text-anchor="middle" x="277" y="-158.3" font-family="Times,serif" font-size="14.00">Complaint</text>
</g>
<!-- Complaint&#45;&gt;ComplaintUser -->
<g id="edge1" class="edge"><title>Complaint&#45;&gt;ComplaintUser</title>
<path fill="none" stroke="#30a133" d="M272.421,-135.884C271.029,-127.096 269.686,-117.142 269,-108 267.803,-92.0449 267.803,-87.9551 269,-72 269.637,-63.5179 270.838,-54.3361 272.121,-46.0356"/>
<ellipse fill="none" stroke="#30a133" cx="273.096" cy="-139.942" rx="4.00001" ry="4.00001"/>
<polygon fill="#30a133" stroke="#30a133" points="272.13,-45.9796 278.192,-36.8417 272.941,-41.0458 273.752,-36.1119 273.752,-36.1119 273.752,-36.1119 272.941,-41.0458 269.311,-35.3822 272.13,-45.9796 272.13,-45.9796"/>
</g>
<!-- User -->
<g id="node5" class="node"><title>User</title>
<ellipse fill="none" stroke="black" cx="305" cy="-90" rx="27.0966" ry="18"/>
<text text-anchor="middle" x="305" y="-86.3" font-family="Times,serif" font-size="14.00">User</text>
</g>
<!-- Complaint&#45;&gt;User -->
<g id="edge2" class="edge"><title>Complaint&#45;&gt;User</title>
<path fill="none" stroke="#f53186" d="M287.514,-134.714C289.77,-129.076 292.153,-123.116 294.411,-117.472"/>
<polygon fill="#f53186" stroke="#f53186" points="287.492,-134.77 279.6,-142.384 285.635,-139.413 283.778,-144.055 283.778,-144.055 283.778,-144.055 285.635,-139.413 287.956,-145.726 287.492,-134.77 287.492,-134.77"/>
<polygon fill="#f53186" stroke="#f53186" points="294.57,-117.074 302.463,-109.46 296.427,-112.431 298.284,-107.789 298.284,-107.789 298.284,-107.789 296.427,-112.431 294.106,-106.118 294.57,-117.074 294.57,-117.074"/>
</g>
<!-- User&#45;&gt;ComplaintUser -->
<g id="edge3" class="edge"><title>User&#45;&gt;ComplaintUser</title>
<path fill="none" stroke="#a581f1" d="M295.311,-64.7779C292.818,-58.544 290.122,-51.8046 287.585,-45.4634"/>
<ellipse fill="none" stroke="#a581f1" cx="296.879" cy="-68.6971" rx="4.00001" ry="4.00001"/>
<polygon fill="#a581f1" stroke="#a581f1" points="287.496,-45.241 287.961,-34.2849 285.639,-40.5986 283.782,-35.9562 283.782,-35.9562 283.782,-35.9562 285.639,-40.5986 279.604,-37.6275 287.496,-45.241 287.496,-45.241"/>
</g>
<!-- Company -->
<g id="node6" class="node"><title>Company</title>
<ellipse fill="none" stroke="black" cx="277" cy="-255" rx="45.4919" ry="18"/>
<text text-anchor="middle" x="277" y="-251.3" font-family="Times,serif" font-size="14.00">Company</text>
</g>
<!-- Company&#45;&gt;Complaint -->
<g id="edge4" class="edge"><title>Company&#45;&gt;Complaint</title>
<path fill="none" stroke="#dfadda" d="M277,-228.729C277,-216.725 277,-202.362 277,-190.129"/>
<ellipse fill="none" stroke="#dfadda" cx="277" cy="-232.884" rx="4" ry="4"/>
<polygon fill="#dfadda" stroke="#dfadda" points="277,-190.04 281.5,-180.04 277,-185.04 277,-180.04 277,-180.04 277,-180.04 277,-185.04 272.5,-180.04 277,-190.04 277,-190.04"/>
</g>
</g>
</svg>
