<?xml version="1.0" encoding="UTF-8" standalone="no"?>
<!DOCTYPE svg PUBLIC "-//W3C//DTD SVG 1.1//EN"
 "http://www.w3.org/Graphics/SVG/1.1/DTD/svg11.dtd">
<!-- Generated by graphviz version 2.38.0 (20140413.2041)
 -->
<!-- Title: models_diagram Pages: 1 -->
<svg width="656pt" height="258pt"
 viewBox="0.00 0.00 656.00 258.00" xmlns="http://www.w3.org/2000/svg" xmlns:xlink="http://www.w3.org/1999/xlink">
<g id="graph0" class="graph" transform="scale(1 1) rotate(0) translate(4 254)">
<title>models_diagram</title>
<polygon fill="none" stroke="none" points="-4,4 -4,-254 652,-254 652,4 -4,4"/>
<!-- _diagram_info -->
<g id="node1" class="node"><title>_diagram_info</title>
<text text-anchor="start" x="8" y="-228.6" font-family="Times,serif" font-size="13.00">Models diagram</text>
<text text-anchor="start" x="8" y="-214.6" font-family="Times,serif" font-size="13.00">Date: Mar 14 2017 &#45; 11:17</text>
<text text-anchor="start" x="8" y="-200.6" font-family="Times,serif" font-size="13.00">Migration version: 20170314140927</text>
<text text-anchor="start" x="8" y="-186.6" font-family="Times,serif" font-size="13.00">Generated by RailRoady 1.5.2</text>
<text text-anchor="start" x="8" y="-172.6" font-family="Times,serif" font-size="13.00">http://railroady.prestonlee.com</text>
</g>
<!-- ApplicationRecord -->
<g id="node2" class="node"><title>ApplicationRecord</title>
<ellipse fill="none" stroke="black" cx="309" cy="-204" rx="77.1866" ry="18"/>
<text text-anchor="middle" x="309" y="-200.3" font-family="Times,serif" font-size="14.00">ApplicationRecord</text>
</g>
<!-- Complaint -->
<g id="node3" class="node"><title>Complaint</title>
<path fill="none" stroke="black" d="M416,-0.5C416,-0.5 636,-0.5 636,-0.5 642,-0.5 648,-6.5 648,-12.5 648,-12.5 648,-109.5 648,-109.5 648,-115.5 642,-121.5 636,-121.5 636,-121.5 416,-121.5 416,-121.5 410,-121.5 404,-115.5 404,-109.5 404,-109.5 404,-12.5 404,-12.5 404,-6.5 410,-0.5 416,-0.5"/>
<text text-anchor="middle" x="526" y="-106.3" font-family="Times,serif" font-size="14.00">Complaint</text>
<polyline fill="none" stroke="black" points="404,-98.5 648,-98.5 "/>
<text text-anchor="start" x="412" y="-83.3" font-family="Times,serif" font-size="14.00">id :integer</text>
<text text-anchor="start" x="412" y="-68.3" font-family="Times,serif" font-size="14.00">name :character varying</text>
<text text-anchor="start" x="412" y="-53.3" font-family="Times,serif" font-size="14.00">theme :text</text>
<text text-anchor="start" x="412" y="-38.3" font-family="Times,serif" font-size="14.00">company_id :integer</text>
<text text-anchor="start" x="412" y="-23.3" font-family="Times,serif" font-size="14.00">created_at :timestamp without time zone</text>
<text text-anchor="start" x="412" y="-8.3" font-family="Times,serif" font-size="14.00">updated_at :timestamp without time zone</text>
</g>
<!-- Company -->
<g id="node4" class="node"><title>Company</title>
<path fill="none" stroke="black" d="M416,-158.5C416,-158.5 636,-158.5 636,-158.5 642,-158.5 648,-164.5 648,-170.5 648,-170.5 648,-237.5 648,-237.5 648,-243.5 642,-249.5 636,-249.5 636,-249.5 416,-249.5 416,-249.5 410,-249.5 404,-243.5 404,-237.5 404,-237.5 404,-170.5 404,-170.5 404,-164.5 410,-158.5 416,-158.5"/>
<text text-anchor="middle" x="526" y="-234.3" font-family="Times,serif" font-size="14.00">Company</text>
<polyline fill="none" stroke="black" points="404,-226.5 648,-226.5 "/>
<text text-anchor="start" x="412" y="-211.3" font-family="Times,serif" font-size="14.00">id :integer</text>
<text text-anchor="start" x="412" y="-196.3" font-family="Times,serif" font-size="14.00">name :character varying</text>
<text text-anchor="start" x="412" y="-181.3" font-family="Times,serif" font-size="14.00">created_at :timestamp without time zone</text>
<text text-anchor="start" x="412" y="-166.3" font-family="Times,serif" font-size="14.00">updated_at :timestamp without time zone</text>
</g>
<!-- Company&#45;&gt;Complaint -->
<g id="edge1" class="edge"><title>Company&#45;&gt;Complaint</title>
<path fill="none" stroke="#9e2193" d="M526,-150.283C526,-144.279 526,-138.09 526,-131.907"/>
<ellipse fill="none" stroke="#9e2193" cx="526" cy="-154.387" rx="4" ry="4"/>
<polygon fill="#9e2193" stroke="#9e2193" points="526,-131.541 530.5,-121.541 526,-126.541 526,-121.541 526,-121.541 526,-121.541 526,-126.541 521.5,-121.541 526,-131.541 526,-131.541"/>
</g>
</g>
</svg>
