<?xml version="1.0" encoding="UTF-8" standalone="no"?>
<!DOCTYPE svg PUBLIC "-//W3C//DTD SVG 1.1//EN"
 "http://www.w3.org/Graphics/SVG/1.1/DTD/svg11.dtd">
<!-- Generated by graphviz version 2.38.0 (20140413.2041)
 -->
<!-- Title: models_diagram Pages: 1 -->
<svg width="506pt" height="158pt"
 viewBox="0.00 0.00 506.10 158.00" xmlns="http://www.w3.org/2000/svg" xmlns:xlink="http://www.w3.org/1999/xlink">
<g id="graph0" class="graph" transform="scale(1 1) rotate(0) translate(4 154)">
<title>models_diagram</title>
<polygon fill="none" stroke="none" points="-4,4 -4,-154 502.096,-154 502.096,4 -4,4"/>
<!-- _diagram_info -->
<g id="node1" class="node"><title>_diagram_info</title>
<text text-anchor="start" x="8" y="-135.6" font-family="Times,serif" font-size="13.00">Models diagram</text>
<text text-anchor="start" x="8" y="-121.6" font-family="Times,serif" font-size="13.00">Date: Mar 14 2017 &#45; 11:17</text>
<text text-anchor="start" x="8" y="-107.6" font-family="Times,serif" font-size="13.00">Migration version: 20170314140927</text>
<text text-anchor="start" x="8" y="-93.6" font-family="Times,serif" font-size="13.00">Generated by RailRoady 1.5.2</text>
<text text-anchor="start" x="8" y="-79.6" font-family="Times,serif" font-size="13.00">http://railroady.prestonlee.com</text>
</g>
<!-- ApplicationRecord -->
<g id="node2" class="node"><title>ApplicationRecord</title>
<ellipse fill="none" stroke="black" cx="309" cy="-111" rx="77.1866" ry="18"/>
<text text-anchor="middle" x="309" y="-107.3" font-family="Times,serif" font-size="14.00">ApplicationRecord</text>
</g>
<!-- Complaint -->
<g id="node3" class="node"><title>Complaint</title>
<ellipse fill="none" stroke="black" cx="450" cy="-18" rx="48.1917" ry="18"/>
<text text-anchor="middle" x="450" y="-14.3" font-family="Times,serif" font-size="14.00">Complaint</text>
</g>
<!-- Company -->
<g id="node4" class="node"><title>Company</title>
<ellipse fill="none" stroke="black" cx="450" cy="-111" rx="45.4919" ry="18"/>
<text text-anchor="middle" x="450" y="-107.3" font-family="Times,serif" font-size="14.00">Company</text>
</g>
<!-- Company&#45;&gt;Complaint -->
<g id="edge1" class="edge"><title>Company&#45;&gt;Complaint</title>
<path fill="none" stroke="#83065d" d="M450,-84.7285C450,-72.7246 450,-58.3622 450,-46.1291"/>
<ellipse fill="none" stroke="#83065d" cx="450" cy="-88.8836" rx="4" ry="4"/>
<polygon fill="#83065d" stroke="#83065d" points="450,-46.0397 454.5,-36.0396 450,-41.0397 450,-36.0397 450,-36.0397 450,-36.0397 450,-41.0397 445.5,-36.0397 450,-46.0397 450,-46.0397"/>
</g>
</g>
</svg>
