<?xml version="1.0" encoding="UTF-8" standalone="no"?>
<!DOCTYPE svg PUBLIC "-//W3C//DTD SVG 1.1//EN"
 "http://www.w3.org/Graphics/SVG/1.1/DTD/svg11.dtd">
<!-- Generated by graphviz version 2.38.0 (20140413.2041)
 -->
<!-- Title: models_diagram Pages: 1 -->
<svg width="656pt" height="694pt"
 viewBox="0.00 0.00 656.34 694.00" xmlns="http://www.w3.org/2000/svg" xmlns:xlink="http://www.w3.org/1999/xlink">
<g id="graph0" class="graph" transform="scale(1 1) rotate(0) translate(4 690)">
<title>models_diagram</title>
<polygon fill="none" stroke="none" points="-4,4 -4,-690 652.343,-690 652.343,4 -4,4"/>
<!-- _diagram_info -->
<g id="node1" class="node"><title>_diagram_info</title>
<text text-anchor="start" x="8" y="-664.6" font-family="Times,serif" font-size="13.00">Models diagram</text>
<text text-anchor="start" x="8" y="-650.6" font-family="Times,serif" font-size="13.00">Date: Mar 14 2017 &#45; 12:39</text>
<text text-anchor="start" x="8" y="-636.6" font-family="Times,serif" font-size="13.00">Migration version: 20170314153351</text>
<text text-anchor="start" x="8" y="-622.6" font-family="Times,serif" font-size="13.00">Generated by RailRoady 1.5.2</text>
<text text-anchor="start" x="8" y="-608.6" font-family="Times,serif" font-size="13.00">http://railroady.prestonlee.com</text>
</g>
<!-- ComplaintUser -->
<g id="node2" class="node"><title>ComplaintUser</title>
<path fill="none" stroke="black" d="M244,-0.5C244,-0.5 464,-0.5 464,-0.5 470,-0.5 476,-6.5 476,-12.5 476,-12.5 476,-94.5 476,-94.5 476,-100.5 470,-106.5 464,-106.5 464,-106.5 244,-106.5 244,-106.5 238,-106.5 232,-100.5 232,-94.5 232,-94.5 232,-12.5 232,-12.5 232,-6.5 238,-0.5 244,-0.5"/>
<text text-anchor="middle" x="354" y="-91.3" font-family="Times,serif" font-size="14.00">ComplaintUser</text>
<polyline fill="none" stroke="black" points="232,-83.5 476,-83.5 "/>
<text text-anchor="start" x="240" y="-68.3" font-family="Times,serif" font-size="14.00">id :integer</text>
<text text-anchor="start" x="240" y="-53.3" font-family="Times,serif" font-size="14.00">complaint_id :integer</text>
<text text-anchor="start" x="240" y="-38.3" font-family="Times,serif" font-size="14.00">user_id :integer</text>
<text text-anchor="start" x="240" y="-23.3" font-family="Times,serif" font-size="14.00">created_at :timestamp without time zone</text>
<text text-anchor="start" x="240" y="-8.3" font-family="Times,serif" font-size="14.00">updated_at :timestamp without time zone</text>
</g>
<!-- ApplicationRecord -->
<g id="node3" class="node"><title>ApplicationRecord</title>
<ellipse fill="none" stroke="black" cx="571" cy="-640" rx="77.1866" ry="18"/>
<text text-anchor="middle" x="571" y="-636.3" font-family="Times,serif" font-size="14.00">ApplicationRecord</text>
</g>
<!-- Complaint -->
<g id="node4" class="node"><title>Complaint</title>
<path fill="none" stroke="black" d="M244,-436.5C244,-436.5 464,-436.5 464,-436.5 470,-436.5 476,-442.5 476,-448.5 476,-448.5 476,-545.5 476,-545.5 476,-551.5 470,-557.5 464,-557.5 464,-557.5 244,-557.5 244,-557.5 238,-557.5 232,-551.5 232,-545.5 232,-545.5 232,-448.5 232,-448.5 232,-442.5 238,-436.5 244,-436.5"/>
<text text-anchor="middle" x="354" y="-542.3" font-family="Times,serif" font-size="14.00">Complaint</text>
<polyline fill="none" stroke="black" points="232,-534.5 476,-534.5 "/>
<text text-anchor="start" x="240" y="-519.3" font-family="Times,serif" font-size="14.00">id :integer</text>
<text text-anchor="start" x="240" y="-504.3" font-family="Times,serif" font-size="14.00">name :character varying</text>
<text text-anchor="start" x="240" y="-489.3" font-family="Times,serif" font-size="14.00">theme :text</text>
<text text-anchor="start" x="240" y="-474.3" font-family="Times,serif" font-size="14.00">company_id :integer</text>
<text text-anchor="start" x="240" y="-459.3" font-family="Times,serif" font-size="14.00">created_at :timestamp without time zone</text>
<text text-anchor="start" x="240" y="-444.3" font-family="Times,serif" font-size="14.00">updated_at :timestamp without time zone</text>
</g>
<!-- Complaint&#45;&gt;ComplaintUser -->
<g id="edge1" class="edge"><title>Complaint&#45;&gt;ComplaintUser</title>
<path fill="none" stroke="#799713" d="M296.064,-429.578C290.334,-420.147 285.393,-410.179 282,-400 245.88,-291.639 243.749,-250.627 282,-143 285.468,-133.241 290.524,-123.777 296.373,-114.893"/>
<ellipse fill="none" stroke="#799713" cx="298.22" cy="-432.969" rx="4.00002" ry="4.00002"/>
<polygon fill="#799713" stroke="#799713" points="296.467,-114.759 305.886,-109.143 299.333,-110.661 302.198,-106.564 302.198,-106.564 302.198,-106.564 299.333,-110.661 298.511,-103.985 296.467,-114.759 296.467,-114.759"/>
</g>
<!-- User -->
<g id="node5" class="node"><title>User</title>
<path fill="none" stroke="black" d="M302.5,-143.5C302.5,-143.5 591.5,-143.5 591.5,-143.5 597.5,-143.5 603.5,-149.5 603.5,-155.5 603.5,-155.5 603.5,-387.5 603.5,-387.5 603.5,-393.5 597.5,-399.5 591.5,-399.5 591.5,-399.5 302.5,-399.5 302.5,-399.5 296.5,-399.5 290.5,-393.5 290.5,-387.5 290.5,-387.5 290.5,-155.5 290.5,-155.5 290.5,-149.5 296.5,-143.5 302.5,-143.5"/>
<text text-anchor="middle" x="447" y="-384.3" font-family="Times,serif" font-size="14.00">User</text>
<polyline fill="none" stroke="black" points="290.5,-376.5 603.5,-376.5 "/>
<text text-anchor="start" x="298.5" y="-361.3" font-family="Times,serif" font-size="14.00">id :integer</text>
<text text-anchor="start" x="298.5" y="-346.3" font-family="Times,serif" font-size="14.00">email :character varying</text>
<text text-anchor="start" x="298.5" y="-331.3" font-family="Times,serif" font-size="14.00">encrypted_password :character varying</text>
<text text-anchor="start" x="298.5" y="-316.3" font-family="Times,serif" font-size="14.00">reset_password_token :character varying</text>
<text text-anchor="start" x="298.5" y="-301.3" font-family="Times,serif" font-size="14.00">reset_password_sent_at :timestamp without time zone</text>
<text text-anchor="start" x="298.5" y="-286.3" font-family="Times,serif" font-size="14.00">remember_created_at :timestamp without time zone</text>
<text text-anchor="start" x="298.5" y="-271.3" font-family="Times,serif" font-size="14.00">sign_in_count :integer</text>
<text text-anchor="start" x="298.5" y="-256.3" font-family="Times,serif" font-size="14.00">current_sign_in_at :timestamp without time zone</text>
<text text-anchor="start" x="298.5" y="-241.3" font-family="Times,serif" font-size="14.00">last_sign_in_at :timestamp without time zone</text>
<text text-anchor="start" x="298.5" y="-226.3" font-family="Times,serif" font-size="14.00">current_sign_in_ip :inet</text>
<text text-anchor="start" x="298.5" y="-211.3" font-family="Times,serif" font-size="14.00">last_sign_in_ip :inet</text>
<text text-anchor="start" x="298.5" y="-196.3" font-family="Times,serif" font-size="14.00">created_at :timestamp without time zone</text>
<text text-anchor="start" x="298.5" y="-181.3" font-family="Times,serif" font-size="14.00">updated_at :timestamp without time zone</text>
<text text-anchor="start" x="298.5" y="-166.3" font-family="Times,serif" font-size="14.00">name :character varying</text>
<text text-anchor="start" x="298.5" y="-151.3" font-family="Times,serif" font-size="14.00">sure_name :character varying</text>
</g>
<!-- Complaint&#45;&gt;User -->
<g id="edge2" class="edge"><title>Complaint&#45;&gt;User</title>
<path fill="none" stroke="#5e7b3f" d="M382.695,-427.04C385.095,-421.273 387.569,-415.327 390.086,-409.278"/>
<polygon fill="#5e7b3f" stroke="#5e7b3f" points="382.642,-427.167 374.645,-434.671 380.721,-431.783 378.8,-436.4 378.8,-436.4 378.8,-436.4 380.721,-431.783 382.955,-438.129 382.642,-427.167 382.642,-427.167"/>
<polygon fill="#5e7b3f" stroke="#5e7b3f" points="390.23,-408.93 398.227,-401.426 392.151,-404.314 394.072,-399.698 394.072,-399.698 394.072,-399.698 392.151,-404.314 389.917,-397.969 390.23,-408.93 390.23,-408.93"/>
</g>
<!-- User&#45;&gt;ComplaintUser -->
<g id="edge3" class="edge"><title>User&#45;&gt;ComplaintUser</title>
<path fill="none" stroke="#4000af" d="M389.015,-135.826C386.071,-128.988 383.193,-122.303 380.431,-115.889"/>
<ellipse fill="none" stroke="#4000af" cx="390.647" cy="-139.617" rx="4.00002" ry="4.00002"/>
<polygon fill="#4000af" stroke="#4000af" points="380.429,-115.884 380.608,-104.92 378.452,-111.292 376.475,-106.699 376.475,-106.699 376.475,-106.699 378.452,-111.292 372.342,-108.479 380.429,-115.884 380.429,-115.884"/>
</g>
<!-- Company -->
<g id="node6" class="node"><title>Company</title>
<path fill="none" stroke="black" d="M244,-594.5C244,-594.5 464,-594.5 464,-594.5 470,-594.5 476,-600.5 476,-606.5 476,-606.5 476,-673.5 476,-673.5 476,-679.5 470,-685.5 464,-685.5 464,-685.5 244,-685.5 244,-685.5 238,-685.5 232,-679.5 232,-673.5 232,-673.5 232,-606.5 232,-606.5 232,-600.5 238,-594.5 244,-594.5"/>
<text text-anchor="middle" x="354" y="-670.3" font-family="Times,serif" font-size="14.00">Company</text>
<polyline fill="none" stroke="black" points="232,-662.5 476,-662.5 "/>
<text text-anchor="start" x="240" y="-647.3" font-family="Times,serif" font-size="14.00">id :integer</text>
<text text-anchor="start" x="240" y="-632.3" font-family="Times,serif" font-size="14.00">name :character varying</text>
<text text-anchor="start" x="240" y="-617.3" font-family="Times,serif" font-size="14.00">created_at :timestamp without time zone</text>
<text text-anchor="start" x="240" y="-602.3" font-family="Times,serif" font-size="14.00">updated_at :timestamp without time zone</text>
</g>
<!-- Company&#45;&gt;Complaint -->
<g id="edge4" class="edge"><title>Company&#45;&gt;Complaint</title>
<path fill="none" stroke="#e91cb7" d="M354,-586.283C354,-580.279 354,-574.09 354,-567.907"/>
<ellipse fill="none" stroke="#e91cb7" cx="354" cy="-590.387" rx="4" ry="4"/>
<polygon fill="#e91cb7" stroke="#e91cb7" points="354,-567.541 358.5,-557.541 354,-562.541 354,-557.541 354,-557.541 354,-557.541 354,-562.541 349.5,-557.541 354,-567.541 354,-567.541"/>
</g>
</g>
</svg>
